<svg xmlns="http://www.w3.org/2000/svg"
	 width="25"
	 height="25"
	 viewBox="52.3 94 62 47"
	 id="svg2"
	 version="1.0">
	<polygon fill="#000000"
			 stroke="#f00000"
			 points="83.3,95 113.3,140 53.3,140"
			 stroke-linejoin="round" />
	<path fill="#f00000" d="M 83.543215,104.80333 C 80.358644,110.53478 69.506031,115.78551 69.485463,123.0282 C 69.475751,126.44811 72.631525,129.20357 76.514339,129.20357 C 78.987854,129.20357 81.185777,128.09348 82.438677,126.39202 C 81.915249,131.31639 80.511286,136.81988 75.384698,137.86415 L 83.543215,137.86415 L 91.701732,137.86415 C 86.57515,136.81988 85.171181,131.31639 84.647753,126.39202 C 85.900658,128.09348 88.098576,129.20357 90.572091,129.20357 C 94.454909,129.20357 97.610678,126.44811 97.600967,123.0282 C 97.580401,115.78551 86.727786,110.53478 83.543215,104.80333 z " />
	<text fill="#ffffff"
		  text-anchor="middle"
		  x="83.3"
		  y="124"
		  style="font: bold 9px Calibri, Helvetica, Arial, sans-serif">
		ALL IN
	</text>
</svg>
